<svg xmlns="http://www.w3.org/2000/svg" viewBox="0 0 64 64" role="img" aria-hidden="true">
  <defs>
    <radialGradient id="og-iris-half" cx="50%" cy="50%" r="55%">
      <stop offset="0%" stop-color="#f3c27d"/>
      <stop offset="45%" stop-color="#bb6b3e"/>
      <stop offset="100%" stop-color="#2a1212"/>
    </radialGradient>
    <linearGradient id="og-ring-half" x1="0%" x2="100%" y1="0%" y2="100%">
      <stop offset="0%" stop-color="#ff9a64"/>
      <stop offset="100%" stop-color="#5b2017"/>
    </linearGradient>
  </defs>
  <ellipse cx="32" cy="32" rx="23" ry="14.5" fill="none" stroke="url(#og-ring-half)" stroke-width="3.5"/>
  <ellipse cx="32" cy="32" rx="11" ry="11" fill="url(#og-iris-half)"/>
  <circle cx="32" cy="32" r="4.5" fill="#0b0f16"/>
  <path d="M20 32c2.5-5.5 7.5-8.2 12-8.2 4.5 0 9.5 2.7 12 8.2-2.5 5.5-7.5 8.2-12 8.2-4.5 0-9.5-2.7-12-8.2Z" fill="none" stroke="#ffb07f" stroke-opacity=".45" stroke-width="1.1"/>
  <path d="M8 36 Q32 26 56 36 L56 64 L8 64 Z" fill="#0b0f16"/>
  <path d="M9 32c6-4 14-6 23-6s17 2 23 6" fill="none" stroke="#ffb07f" stroke-opacity=".35" stroke-width="2"/>
</svg>
