<svg xmlns="http://www.w3.org/2000/svg" viewBox="0 0 64 64" role="img" aria-label="Sauron">
  <g fill="none" stroke="#C65A3A" stroke-width="2.2" stroke-linecap="round" stroke-linejoin="round">
    <path d="M11 32c0 0 8.5-12 21-12s21 12 21 12s-8.5 12-21 12S11 32 11 32z"/>
    <circle cx="32" cy="32" r="6.2" fill="#C65A3A" stroke="none"/>
    <path d="M17 26l-3-5"/>
    <path d="M22 23l-1.5-6"/>
    <path d="M27 21.5v-6"/>
    <path d="M32 21v-6.5"/>
    <path d="M37 21.5v-6"/>
    <path d="M42 23l1.5-6"/>
    <path d="M47 26l3-5"/>
    <path d="M17 38l-3 5"/>
    <path d="M22 41l-1.5 6"/>
    <path d="M27 42.5v6"/>
    <path d="M32 43v6.5"/>
    <path d="M37 42.5v6"/>
    <path d="M42 41l1.5 6"/>
    <path d="M47 38l3 5"/>
  </g>
</svg>
