<svg xmlns="http://www.w3.org/2000/svg" viewBox="0 0 64 64" role="img" aria-label="Sauron">
  <defs>
    <radialGradient id="inferno-75" cx="50%" cy="72%" r="52%">
      <stop offset="0%" stop-color="#fff176"/>
      <stop offset="28%" stop-color="#ffb300"/>
      <stop offset="62%" stop-color="#ff6f00"/>
      <stop offset="100%" stop-color="#6d1b00"/>
    </radialGradient>
    <linearGradient id="lid-75" x1="50%" y1="0%" x2="50%" y2="100%">
      <stop offset="0%" stop-color="#0d0200" stop-opacity="0.98"/>
      <stop offset="60%" stop-color="#1a0500" stop-opacity="0.8"/>
      <stop offset="100%" stop-color="#1a0500" stop-opacity="0"/>
    </linearGradient>
    <filter id="blur-75" x="-70%" y="-70%" width="240%" height="240%">
      <feGaussianBlur stdDeviation="1.5"/>
    </filter>
    <filter id="glow-75" x="-80%" y="-80%" width="260%" height="260%">
      <feGaussianBlur stdDeviation="1.1" result="b"/>
      <feMerge><feMergeNode in="b"/><feMergeNode in="SourceGraphic"/></feMerge>
    </filter>
    <clipPath id="lower-75"><rect x="0" y="24" width="64" height="40"/></clipPath>
    <clipPath id="eye-clip-75">
      <path d="M6 32c6.5-13.5 15-19.5 26-19.5s19.5 6 26 19.5c-6.5 13.5-15 19.5-26 19.5S12.5 45.5 6 32z"/>
    </clipPath>
  </defs>
  <ellipse cx="32" cy="32" rx="28" ry="18" fill="#ff6f00" opacity="0.11" filter="url(#blur-75)"/>
  <g clip-path="url(#eye-clip-75)">
    <g clip-path="url(#lower-75)">
      <ellipse cx="32" cy="32" rx="27" ry="17" fill="#1a0500"/>
      <ellipse cx="32" cy="32" rx="27" ry="17" fill="url(#inferno-75)"/>
      <path d="M32 32 Q18 36 12 33 Q20 29 28 32" fill="none" stroke="#ffe082" stroke-width="0.9" opacity="0.4"/>
      <path d="M32 33 C33.8 27 34 31 32 37 C30.2 31 30.4 27 32 33 Z" fill="#000000"/>
      <ellipse cx="33.5" cy="29" rx="0.6" ry="2" fill="#fffde7" opacity="0.6"/>
    </g>
    <path d="M6 32c6.5-13.5 15-19.5 26-19.5s19.5 6 26 19.5" fill="url(#lid-75)"/>
    <path d="M6 32c6.5-13.5 15-19.5 26-19.5s19.5 6 26 19.5" fill="none" stroke="#ff6f00" stroke-width="2.2" stroke-linecap="round" filter="url(#glow-75)"/>
  </g>
  <path d="M6 32c6.5-13.5 15-19.5 26-19.5s19.5 6 26 19.5c-6.5 13.5-15 19.5-26 19.5S12.5 45.5 6 32z" fill="none" stroke="#ffab40" stroke-width="1.5" opacity="0.8" filter="url(#glow-75)"/>
</svg>
